<?xml version="1.0" encoding="UTF-8"?>
<!-- R Series body part: blue molded bumper (refined). Master space 0 0 1440 1120.
     Flatter left top, larger molded edge radius. Connector bump is a SEPARATE asset. -->
<svg viewBox="0 0 1440 1120" xmlns="http://www.w3.org/2000/svg">
  <defs>
    <linearGradient id="bumperGrad" x1="0" y1="0" x2="0" y2="1">
      <stop offset="0" stop-color="#2a86c8"/>
      <stop offset="0.5" stop-color="#0066b3"/>
      <stop offset="1" stop-color="#004a82"/>
    </linearGradient>
    <filter id="bumperTex" x="0" y="0" width="100%" height="100%">
      <feTurbulence type="fractalNoise" baseFrequency="0.9" numOctaves="2" seed="7" stitchTiles="stitch" result="n"/>
      <feColorMatrix in="n" type="matrix"
        values="0 0 0 0 0  0 0 0 0 0  0 0 0 0 0  0.55 0.55 0.55 0 -0.72"/>
    </filter>
    <clipPath id="bumperClip">
      <path d="M112,52 H884 Q1000,52 1052,32 Q1132,14 1216,26 Q1320,38 1360,62 Q1396,88 1396,132 V882 Q1060,926 715,916 Q400,906 46,882 V124 Q46,52 112,52 Z"/>
    </clipPath>
  </defs>

  <g id="Bumper">
    <path d="M112,52 H884 Q1000,52 1052,32 Q1132,14 1216,26 Q1320,38 1360,62 Q1396,88 1396,132 V882 Q1060,926 715,916 Q400,906 46,882 V124 Q46,52 112,52 Z"
      fill="url(#bumperGrad)" stroke="#004371" stroke-width="2"/>
    <!-- molded-plastic texture, clipped to the bumper -->
    <g clip-path="url(#bumperClip)">
      <rect x="40" y="0" width="1360" height="920" filter="url(#bumperTex)" opacity="0.5"/>
      <!-- larger molded edge radius: soft inner edge highlight -->
      <path d="M112,66 H884 Q996,66 1050,46 Q1130,30 1214,42 Q1316,54 1352,74"
        fill="none" stroke="#8ec2e8" stroke-width="4" stroke-opacity="0.4"/>
      <!-- inner molded rim shadow (bottom) -->
      <path d="M60,876 Q400,918 715,908 Q1060,918 1382,876" fill="none" stroke="#003a63" stroke-width="4" stroke-opacity="0.35"/>
    </g>
  </g>
</svg>
